<svg version="1.2" xmlns="http://www.w3.org/2000/svg" viewBox="0 0 178 228" width="178" height="228">
	<title>astronaut-svg</title>
	<defs>
		<clipPath clipPathUnits="userSpaceOnUse" id="cp1">
			<path d="m102.52 141l-0.74 0.43q-0.19 0.11-0.32 0.28-0.13 0.18-0.17 0.39-0.05 0.21 0 0.42 0.05 0.22 0.18 0.39c3.75 5 15.52 28.93 19 36.07q0.2 0.41 0.23 0.87 0.03 0.46-0.11 0.9-0.14 0.44-0.43 0.79-0.29 0.36-0.69 0.58l-17.6 10.18q-0.33 0.19-0.71 0.27-0.38 0.08-0.76 0.04-0.38-0.04-0.74-0.2-0.35-0.16-0.63-0.42c-2.49-2.3-8.3-7.8-15.37-15.5-9.49-10.32-20.91-30.07-24.92-40-4.01-9.93-4-10-5.95-19.4-4.48 5.71-3.15 19.09-2.79 22.06q0.02 0.14 0.05 0.28 0.04 0.14 0.09 0.27 0.05 0.14 0.12 0.26 0.07 0.13 0.16 0.24c1.48 2 7.26 9.65 8.58 11.94 1.52 2.63 0 4.7-1.11 4.16q-1.02-0.61-2.03-1.24-1-0.64-1.99-1.3-0.98-0.66-1.95-1.35-0.97-0.69-1.92-1.41-0.15-0.11-0.33-0.19-0.17-0.07-0.36-0.1-0.18-0.03-0.37-0.01-0.19 0.02-0.37 0.08c-1.78 0.7 1.08 3.23 1.08 3.23q0.68 0.52 1.37 1.01 0.69 0.49 1.4 0.96 0.71 0.47 1.44 0.91 0.73 0.44 1.47 0.86 0.39 0.19 0.73 0.45 0.34 0.27 0.6 0.61 0.27 0.34 0.45 0.74 0.18 0.39 0.27 0.81 0.08 0.31 0.08 0.63 0 0.32-0.09 0.63-0.09 0.3-0.26 0.57-0.17 0.28-0.41 0.49c-3.69 3.32-9.35 1.69-12.48 0.38q-0.61-0.25-1.18-0.59-0.56-0.34-1.07-0.76-0.51-0.42-0.95-0.91-0.44-0.49-0.8-1.04-0.67-1.01-1.2-2.1-0.54-1.09-0.93-2.24-0.39-1.15-0.63-2.34-0.24-1.19-0.33-2.4 0.08-1.41-0.06-2.81-0.13-1.4-0.48-2.76-0.34-1.37-0.88-2.67-0.55-1.3-1.28-2.5c-14.13-27.08 3.31-51.12 4.86-55.66 9-3.18 15.13-10.62 22.07-14.56l-0.21 0.12c6.92-4.07 15.57-6.19 22.85-12.44 4.71 0.93 35.09-1.66 51.52 24.1q0.68 1.24 1.54 2.35 0.86 1.12 1.88 2.1 1.01 0.98 2.17 1.79 1.15 0.82 2.41 1.45 1.01 0.68 1.92 1.48 0.91 0.81 1.71 1.72 0.8 0.91 1.48 1.92 0.68 1.01 1.22 2.09 0.3 0.58 0.51 1.2 0.2 0.62 0.32 1.27 0.11 0.64 0.13 1.3 0.01 0.65-0.07 1.3c-0.43 3.36-1.84 9.08-6.55 10.62q-0.3 0.1-0.62 0.11-0.32 0.01-0.64-0.06-0.31-0.08-0.59-0.24-0.27-0.15-0.5-0.38-0.32-0.29-0.57-0.64-0.25-0.35-0.41-0.75-0.16-0.4-0.23-0.83-0.06-0.43-0.03-0.86 0.01-0.85-0.01-1.7-0.02-0.85-0.07-1.7-0.05-0.85-0.14-1.7-0.08-0.85-0.19-1.69c-0.07-0.56-0.76-3.72-2.25-2.55q-0.15 0.12-0.26 0.28-0.11 0.15-0.18 0.33-0.07 0.17-0.09 0.36-0.02 0.19 0 0.38c0.36 3.46 1.8 8.8 0.56 9.51-1.24 0.71-2.63 1.52-4.16-1.11-1.32-2.29-5.11-11.13-6.07-13.39q-0.06-0.13-0.13-0.26-0.07-0.12-0.16-0.23-0.09-0.11-0.19-0.21-0.11-0.1-0.22-0.19c-2.39-1.79-13.33-9.62-20.51-8.58 7.2 6.37 7.2 6.38 13.85 14.83 6.65 8.45 18.07 28.2 22.29 41.57 3.15 10 5 17.75 5.78 21.05q0.09 0.38 0.05 0.76-0.04 0.38-0.19 0.74-0.15 0.35-0.41 0.64-0.26 0.29-0.59 0.48l-17.6 10.18q-0.4 0.23-0.85 0.3-0.45 0.07-0.89-0.03-0.45-0.1-0.83-0.36-0.37-0.26-0.63-0.64c-4.45-6.58-19.32-28.71-21.79-34.46q-0.08-0.2-0.24-0.35-0.16-0.14-0.37-0.21-0.2-0.07-0.42-0.04-0.21 0.02-0.4 0.13l-0.74 0.43"/>
		</clipPath>
		<linearGradient id="g1" x1="68" y1="113.6" x2="95.5" y2="97.4" gradientUnits="userSpaceOnUse">
			<stop offset="0" stop-color="#9e23cc"/>
			<stop offset="1" stop-color="#4619bf"/>
		</linearGradient>
		<clipPath clipPathUnits="userSpaceOnUse" id="cp2">
			<path d="m149.39 167.58l2.11 3.75q0.52 0.93 1.22 1.73 0.7 0.8 1.55 1.44 0.86 0.63 1.82 1.07 0.97 0.44 2.01 0.67c0.78 0.18 1.64 0.38 2.51 0.61q0.77 0.2 1.52 0.49 0.75 0.28 1.46 0.64 0.71 0.37 1.38 0.8 0.67 0.44 1.29 0.94c9.06 7.41 0.57 12.25-8.59 17.5q-0.65 0.38-1.33 0.7-0.68 0.33-1.38 0.59-0.7 0.27-1.43 0.48-0.72 0.2-1.46 0.35-0.54 0.1-1.08 0.17-0.54 0.07-1.09 0.09-0.54 0.03-1.09 0.02-0.55-0.02-1.09-0.07-1.19-0.09-2.33-0.43-1.13-0.35-2.18-0.92-1.04-0.57-1.94-1.34-0.9-0.78-1.62-1.73l-10.53-16.4z"/>
		</clipPath>
		<clipPath clipPathUnits="userSpaceOnUse" id="cp3">
			<path d="m122.22 182.72l9 17.31q0.46 1.1 0.69 2.26 0.22 1.17 0.2 2.36-0.03 1.19-0.3 2.35-0.27 1.15-0.78 2.23-0.23 0.5-0.49 0.98-0.26 0.48-0.56 0.94-0.29 0.46-0.62 0.9-0.33 0.44-0.69 0.85-0.49 0.57-1.03 1.09-0.54 0.53-1.13 1-0.58 0.48-1.2 0.91-0.62 0.43-1.27 0.8c-9.12 5.33-17.55 10.27-19.45-1.27q-0.13-0.79-0.17-1.59-0.04-0.79 0-1.59 0.04-0.8 0.16-1.59 0.13-0.79 0.34-1.56 0.36-1.32 0.73-2.48 0.32-1.02 0.41-2.08 0.1-1.06-0.03-2.11-0.13-1.06-0.48-2.06-0.35-1.01-0.9-1.92l-2.2-3.69z"/>
		</clipPath>
		<clipPath clipPathUnits="userSpaceOnUse" id="cp4">
			<path d="m6.63 50.18l9.13 15.88q-1.27 0.73-2.71 0.92-1.45 0.18-2.85-0.19-1.41-0.39-2.56-1.27-1.16-0.89-1.88-2.16l-1.83-3.17q-0.72-1.27-0.91-2.71-0.19-1.44 0.19-2.85 0.38-1.41 1.27-2.56 0.89-1.15 2.15-1.88z"/>
		</clipPath>
		<clipPath clipPathUnits="userSpaceOnUse" id="cp5">
			<path d="m80.52 28.3l-9.14-15.81q1.26-0.73 2.7-0.92 1.43-0.19 2.84 0.19 1.4 0.37 2.55 1.25 1.15 0.89 1.88 2.14l1.84 3.17q0.72 1.26 0.91 2.7 0.19 1.44-0.18 2.84-0.38 1.4-1.26 2.56-0.88 1.15-2.14 1.88z"/>
		</clipPath>
		<clipPath clipPathUnits="userSpaceOnUse" id="cp6">
			<path d="m63.23 73.52c-18.66 10.73-42.4 4.31-53.13-14.35-10.72-18.65-4.31-42.4 14.35-53.12 18.66-10.73 42.41-4.31 53.13 14.34 10.72 18.66 4.31 42.41-14.35 53.13z"/>
		</clipPath>
		<linearGradient id="g2" x1="24.3" y1="49.8" x2="67.6" y2="24.7" gradientUnits="userSpaceOnUse">
			<stop offset="0" stop-color="#9e23cc"/>
			<stop offset="1" stop-color="#4619bf"/>
		</linearGradient>
	</defs>
	<style>
		.s0 { fill: #b5b5b5 } 
		.s1 { fill: #969696 } 
		.s2 { fill: #f2f2f2 } 
		.s3 { fill: #ffcb39 } 
		.s4 { mix-blend-mode: soft-light;fill: #ffffff } 
		.s5 { mix-blend-mode: multiply;fill: #dedfe0 } 
		.s6 { fill: #dedfe0 } 
		.s7 { fill: #d3d3d3 } 
		.s8 { fill: url(#g1) } 
		.s9 { fill: #fcfcfc } 
		.s10 { fill: #c4c4c4 } 
		.s11 { fill: #adadad } 
		.s12 { fill: #c6c6c6 } 
		.s13 { fill: #b2b2b2 } 
		.s14 { fill: #e8e8e8 } 
		.s15 { fill: #ffffff } 
		.s16 { fill: #7f1bbf } 
		.s17 { fill: url(#g2) } 
		.s18 { fill: #d8d8d8 } 
	</style>
	<g id="Layer">
		<g id="Layer_2">
			<g id="Layer_1-2">
				<path id="Layer" class="s0" d="m31.8 79.8c0.8 1.5 0.3 3.4-1.2 4.3-1.5 0.9-3.4 0.4-4.3-1.2-0.9-1.5-0.4-3.4 1.1-4.3 1.6-0.8 3.5-0.3 4.4 1.2z"/>
				<path id="Layer" class="s1" d="m91.9 123.2l-30.7 17.8c-1.2 0.7-2.4 1.1-3.7 1.3-1.3 0.2-2.6 0.2-3.9-0.1-1.2-0.3-2.5-0.8-3.6-1.5-1-0.7-2-1.6-2.8-2.7l-24.3-33.9c-1.3-1.8-2.2-3.8-2.6-5.9-0.5-2.1-0.5-4.3 0-6.4 0.5-2.1 1.3-4.1 2.6-5.9 1.3-1.7 2.9-3.2 4.8-4.3l30.1-17.4z"/>
				<path id="Layer" class="s0" d="m91.7 122.8l-29.6 17.1c-1.1 0.6-2.3 1.1-3.5 1.3-1.3 0.1-2.5 0.1-3.8-0.2-1.2-0.2-2.4-0.7-3.4-1.4-1.1-0.7-2-1.6-2.7-2.6l-23.3-32.3c-1.2-1.8-2.1-3.7-2.5-5.8-0.4-2.1-0.4-4.2 0-6.3 0.5-2.1 1.3-4 2.6-5.7 1.2-1.7 2.8-3.2 4.6-4.2l28.7-16.7z"/>
				<path id="Layer" class="s0" d="m84.6 49.2c-0.9-1.5-0.4-3.4 1.1-4.3 1.6-0.9 3.5-0.3 4.4 1.2 0.8 1.5 0.3 3.4-1.2 4.3-1.5 0.9-3.4 0.3-4.3-1.2z"/>
				<path id="Layer" class="s1" d="m57.7 64.3l30.1-17.4c1.9-1.1 4-1.8 6.1-2 2.2-0.2 4.3 0 6.4 0.6 2.1 0.7 4 1.8 5.6 3.2 1.6 1.5 2.9 3.2 3.8 5.2l17.2 38c0.6 1.2 0.9 2.5 0.9 3.8 0.1 1.3 0 2.6-0.4 3.8-0.4 1.2-1.1 2.4-1.9 3.4-0.8 1-1.8 1.9-2.9 2.5l-30.8 17.8z"/>
				<path id="Layer" class="s0" d="m58.4 66.3l28.7-16.6c1.8-1.1 3.8-1.7 6-2 2.1-0.2 4.2 0 6.2 0.7 2.1 0.6 3.9 1.7 5.5 3.1 1.6 1.4 2.9 3.1 3.7 5.1l16.5 36.3q0.8 1.8 0.9 3.7 0.1 1.9-0.5 3.7-0.6 1.8-1.8 3.2-1.2 1.5-2.8 2.4l-29.6 17.2z"/>
				<path id="Layer" class="s2" d="m102.5 141l-0.7 0.4q-0.2 0.1-0.3 0.3-0.2 0.2-0.2 0.4-0.1 0.2 0 0.4 0 0.2 0.2 0.4c3.7 5 15.5 28.9 19 36.1q0.2 0.4 0.2 0.9 0 0.4-0.1 0.8-0.1 0.5-0.4 0.8-0.3 0.4-0.7 0.6l-17.6 10.2q-0.4 0.2-0.7 0.3-0.4 0.1-0.8 0-0.4 0-0.7-0.2-0.4-0.1-0.7-0.4c-2.5-2.3-8.3-7.8-15.3-15.5-9.5-10.3-20.9-30.1-25-40-4-9.9-4-10-5.9-19.4-4.5 5.7-3.2 19.1-2.8 22q0 0.2 0.1 0.3 0 0.2 0 0.3 0.1 0.1 0.2 0.3 0 0.1 0.1 0.2c1.5 2 7.3 9.6 8.6 11.9 1.5 2.7 0 4.7-1.1 4.2q-1-0.6-2-1.2-1-0.7-2-1.3-1-0.7-2-1.4-1-0.7-1.9-1.4-0.2-0.1-0.3-0.2-0.2-0.1-0.4-0.1-0.2 0-0.4 0-0.2 0-0.3 0.1c-1.8 0.7 1.1 3.2 1.1 3.2q0.6 0.5 1.3 1 0.7 0.5 1.4 1 0.7 0.5 1.5 0.9 0.7 0.4 1.4 0.8 0.4 0.2 0.8 0.5 0.3 0.3 0.6 0.6 0.2 0.4 0.4 0.7 0.2 0.4 0.3 0.9 0.1 0.3 0.1 0.6 0 0.3-0.1 0.6-0.1 0.3-0.3 0.6-0.2 0.3-0.4 0.5c-3.7 3.3-9.4 1.7-12.5 0.4q-0.6-0.3-1.2-0.6-0.5-0.4-1-0.8-0.5-0.4-1-0.9-0.4-0.5-0.8-1-0.6-1.1-1.2-2.1-0.5-1.1-0.9-2.3-0.4-1.1-0.6-2.3-0.3-1.2-0.4-2.4 0.1-1.4 0-2.8-0.2-1.4-0.5-2.8-0.4-1.4-0.9-2.7-0.5-1.3-1.3-2.5c-14.1-27 3.3-51.1 4.9-55.6 9-3.2 15.1-10.6 22.1-14.6l-0.3 0.1c7-4 15.6-6.2 22.9-12.4 4.7 0.9 35.1-1.7 51.5 24.1q0.7 1.2 1.6 2.4 0.8 1.1 1.8 2.1 1.1 0.9 2.2 1.7 1.2 0.9 2.4 1.5 1 0.7 1.9 1.5 0.9 0.8 1.7 1.7 0.8 0.9 1.5 1.9 0.7 1 1.2 2.1 0.3 0.6 0.6 1.2 0.2 0.6 0.3 1.3 0.1 0.6 0.1 1.3 0 0.6-0.1 1.3c-0.4 3.3-1.8 9-6.5 10.6q-0.3 0.1-0.6 0.1-0.4 0-0.7-0.1-0.3 0-0.6-0.2-0.2-0.2-0.5-0.4-0.3-0.3-0.5-0.6-0.3-0.4-0.4-0.8-0.2-0.4-0.3-0.8 0-0.4 0-0.9 0-0.8 0-1.7 0-0.8-0.1-1.7 0-0.8-0.1-1.7-0.1-0.8-0.2-1.7c-0.1-0.5-0.8-3.7-2.3-2.5q-0.1 0.1-0.2 0.3-0.1 0.1-0.2 0.3-0.1 0.2-0.1 0.4 0 0.2 0 0.3c0.4 3.5 1.8 8.8 0.6 9.6-1.3 0.7-2.7 1.5-4.2-1.1-1.3-2.3-5.1-11.2-6.1-13.4q0-0.2-0.1-0.3-0.1-0.1-0.2-0.2 0-0.1-0.1-0.2-0.1-0.1-0.3-0.2c-2.3-1.8-13.3-9.7-20.5-8.6 7.2 6.4 7.2 6.4 13.9 14.8 6.6 8.5 18 28.2 22.3 41.6 3.1 10 5 17.7 5.7 21q0.1 0.4 0.1 0.8 0 0.4-0.2 0.7-0.1 0.4-0.4 0.7-0.3 0.3-0.6 0.5l-17.6 10.1q-0.4 0.3-0.8 0.3-0.5 0.1-0.9 0-0.5-0.1-0.9-0.4-0.3-0.2-0.6-0.6c-4.4-6.6-19.3-28.7-21.8-34.4q-0.1-0.2-0.2-0.4-0.2-0.1-0.4-0.2-0.2-0.1-0.4-0.1-0.2 0.1-0.4 0.2l-0.8 0.4"/>
				<g id="Clip-Path" clip-path="url(#cp1)">
					<g id="Layer">
						<path id="Layer" class="s3" d="m105.1 71l7.2-16.9 6.9 3-7.3 16.8z"/>
						<path id="Layer" class="s4" d="m84.5 56.6l2.4-4 49.8 11.3 23.7 36.3c0 0-17.4 23.1-12.7 8.7 4.7-14.5-2.6-17.1-4.3-19.2-1.8-2.1-0.2 4.3-11.7-12-14.2-14.7-47.7-20.3-47.7-20.3z"/>
						<path id="Layer" class="s3" d="m19.5 107.8l18.9 1.4-0.5 7.6-18.9-1.4z"/>
						<path id="Layer" class="s3" d="m109.3 154.6l31.7-24.4 1.9 2.6-31.7 24.4z"/>
						<path id="Layer" class="s3" d="m72.2 169.9l36.9-15.3 1.3 3-37 15.3z"/>
						<path id="Layer" class="s5" d="m148.4 169.7c2.4-11.3-17-47.5-20.2-54-6.2-14.1-28.6-34-28.6-34 16.4 0.4 30.9 12.9 30.9 12.9 0 0 29.4 64.3 17.9 75.1z"/>
						<path id="Layer" class="s6" d="m64.4 157.8c0 0-6.6-5-15.8-16.4-3.7-11.9-1.2-19.1 4.8-34.1-0.5 10.8 13 45 13 45z"/>
						<path id="Layer" class="s5" d="m102.1 141.4q0.2 0 0.4 0 0.2 0.1 0.4 0.2 0.2 0.2 0.3 0.3l21.2 36.8q0 0 0.1 0.1 0 0 0 0.1 0 0.1 0 0.1 0.1 0.1 0.1 0.1 0 0.8-0.1 1.5-0.1 0.7-0.3 1.4-0.2 0.6-0.5 1.3-0.4 0.6-0.8 1.2-0.2 0.2-0.5 0.3-0.2 0.1-0.5 0.1-0.3 0-0.5-0.2-0.3-0.2-0.4-0.4c-8.1-16.8-20.5-34.6-23.5-39q-0.2-0.1-0.2-0.4-0.1-0.2 0-0.4 0-0.2 0.2-0.4 0.1-0.2 0.3-0.3l3.9-2.3q0.2-0.1 0.4-0.1z"/>
						<path id="Layer" class="s4" d="m38.6 92.5c-7.4 10.6-7.1 22.9-7.1 25.5q-0.1 2.1 0.1 4.3 0.1 2.1 0.4 4.2 0.3 2.1 0.8 4.2 0.5 2.1 1.1 4.1c3.4 5.9 4.5 10.4 4 11.5-0.5 1.1-6 5.9-6 5.9l-15.6-27 1.7-26 20.7-15.6z"/>
					</g>
				</g>
				<path id="Layer" class="s7" d="m103.9 113.2l-26.1 15.4q-1 0.6-2.2 0.8-1.2 0.2-2.4-0.1-1.2-0.3-2.1-1-1-0.8-1.6-1.8l-6.2-10.5q-0.6-1-0.8-2.2-0.2-1.2 0.1-2.4 0.3-1.1 1-2.1 0.8-1 1.8-1.6l26.2-15.5q1-0.6 2.2-0.8 1.2-0.1 2.3 0.2 1.2 0.3 2.2 1 0.9 0.7 1.5 1.7l6.3 10.6q0.6 1 0.8 2.2 0.1 1.2-0.2 2.4-0.3 1.1-1 2.1-0.7 1-1.8 1.6z"/>
				<path id="Layer" class="s0" d="m71.5 119.6c-0.3-0.6-0.1-1.3 0.4-1.7l9.1-5.3c0.6-0.3 1.3-0.1 1.6 0.4 0.4 0.6 0.2 1.3-0.4 1.7l-9 5.3c-0.6 0.3-1.3 0.2-1.7-0.4z"/>
				<path id="Layer" class="s3" d="m81.5 114.8c-0.5 0.3-1.1 0.1-1.3-0.3-0.3-0.5-0.2-1.1 0.3-1.3 0.4-0.3 1-0.1 1.3 0.3 0.3 0.5 0.1 1-0.3 1.3z"/>
				<path id="Layer" class="s0" d="m73.2 122.4c-0.3-0.5-0.1-1.3 0.4-1.6l9.1-5.3c0.5-0.4 1.3-0.2 1.6 0.4 0.4 0.6 0.2 1.3-0.4 1.6l-9 5.4c-0.6 0.3-1.3 0.1-1.7-0.4z"/>
				<path id="Layer" class="s3" d="m76.6 121.6c-0.5 0.2-1 0.1-1.3-0.4-0.3-0.4-0.1-1 0.3-1.3 0.5-0.2 1.1-0.1 1.3 0.4 0.3 0.4 0.1 1-0.3 1.3z"/>
				<path id="Layer" class="s0" d="m74.9 125.3c-0.3-0.5-0.1-1.3 0.5-1.6l9-5.3c0.6-0.4 1.3-0.2 1.6 0.4 0.4 0.5 0.2 1.3-0.4 1.6l-9 5.4c-0.6 0.3-1.3 0.1-1.7-0.5z"/>
				<path id="Layer" class="s3" d="m82.4 122c-0.5 0.3-1 0.1-1.3-0.3-0.3-0.5-0.1-1.1 0.3-1.3 0.5-0.3 1.1-0.1 1.3 0.3 0.3 0.5 0.2 1-0.3 1.3z"/>
				<path id="Layer" class="s0" d="m88.6 108.1l9.8-5.8 0.3 0.4-9.9 5.8z"/>
				<path id="Layer" class="s0" d="m89 108.8l9.8-5.9 0.3 0.5-9.9 5.8z"/>
				<path id="Layer" class="s0" d="m89.4 109.5l9.8-5.9 0.3 0.4-9.9 5.9z"/>
				<path id="Layer" class="s0" d="m89.8 110l9.9-5.9 0.2 0.4-9.9 5.9z"/>
				<path id="Layer" class="s0" d="m90.2 110.8l9.8-5.8 0.3 0.4-9.9 5.8z"/>
				<path id="Layer" class="s0" d="m90.6 111.5l9.8-5.9 0.3 0.5-9.9 5.8z"/>
				<path id="Layer" class="s0" d="m91 112l9.8-5.9 0.3 0.4-9.9 5.9z"/>
				<path id="Layer" class="s0" d="m91.4 112.6l9.9-5.8 0.2 0.4-9.9 5.9z"/>
				<path id="Layer" class="s0" d="m91.8 113.3l9.8-5.8 0.3 0.4-9.9 5.8z"/>
				<path id="Layer" class="s0" d="m92.2 114l9.8-5.9 0.3 0.5-9.9 5.8z"/>
				<path id="Layer" class="s0" d="m92.6 114.8l9.8-5.8 0.3 0.4-9.9 5.8z"/>
				<path id="Layer" class="s0" d="m92.9 115.5l9.9-5.8 0.2 0.4-9.8 5.8z"/>
				<path id="Layer" class="s8" d="m68 113.6c-0.7-1.2-0.3-2.8 0.9-3.6l23-13.6c1.3-0.7 2.9-0.3 3.6 0.9 0.8 1.3 0.4 2.9-0.9 3.6l-23 13.6c-1.2 0.8-2.8 0.4-3.6-0.9z"/>
				<path id="Layer" class="s7" d="m125.5 95.9l15.9-10.3 1.7 2.7-15.9 10.3z"/>
				<path id="Layer" class="s7" d="m34.6 146.6l17.2-8.1 1.3 2.9-17.1 8.1z"/>
				<path id="Layer" class="s7" d="m63.7 149.4l65.2-37.8 3.2 5.5-65.2 37.8z"/>
				<path id="Layer" class="s0" d="m90.8 134c-0.4-0.6-0.2-1.4 0.4-1.8l8.7-5c0.6-0.4 1.4-0.2 1.8 0.5l3 5.1c0.3 0.6 0.1 1.4-0.5 1.8l-8.7 5c-0.6 0.4-1.4 0.2-1.8-0.5z"/>
				<path id="Layer" class="s9" d="m99.2 135.9c-1.4 0.8-3.2 0.4-4-1-0.8-1.4-0.4-3.2 1-4 1.4-0.9 3.2-0.4 4 1 0.9 1.4 0.4 3.2-1 4z"/>
				<path id="Layer" class="s6" d="m149.4 167.6l2.1 3.7q0.5 1 1.2 1.8 0.7 0.8 1.6 1.4 0.8 0.6 1.8 1.1 1 0.4 2 0.6c0.8 0.2 1.6 0.4 2.5 0.6q0.8 0.3 1.5 0.5 0.8 0.3 1.5 0.7 0.7 0.3 1.4 0.8 0.6 0.4 1.3 0.9c9 7.4 0.5 12.3-8.6 17.5q-0.7 0.4-1.4 0.7-0.6 0.3-1.3 0.6-0.7 0.3-1.5 0.5-0.7 0.2-1.4 0.3-0.6 0.1-1.1 0.2-0.6 0.1-1.1 0.1-0.5 0-1.1 0-0.5 0-1.1-0.1-1.2 0-2.3-0.4-1.1-0.3-2.2-0.9-1-0.6-1.9-1.3-0.9-0.8-1.7-1.8l-10.5-16.4z"/>
				<g id="Clip-Path" clip-path="url(#cp2)">
					<g id="Layer">
						<path id="Layer" class="s10" d="m161 180.2c-2.7 1.5-6.1 0.6-7.7-2.1-1.6-2.7-0.7-6.1 2-7.7 2.7-1.6 6.2-0.6 7.8 2.1 1.5 2.7 0.6 6.1-2.1 7.7z"/>
						<path id="Layer" class="s10" d="m130.7 197.7l6.5-5.9q0.7 1 1.6 1.8 0.9 0.7 2 1.3 1 0.6 2.2 0.9 1.1 0.4 2.3 0.5 0.5 0 1.1 0 0.5 0 1.1 0 0.5 0 1.1-0.1 0.5 0 1-0.2 0.8-0.1 1.5-0.3 0.7-0.2 1.4-0.5 0.7-0.2 1.4-0.6 0.7-0.3 1.3-0.7c9.2-5.2 17.7-10.1 8.6-17.5q-0.6-0.5-1.2-0.9-0.7-0.4-1.4-0.8-0.7-0.4-1.5-0.7-0.7-0.2-1.5-0.4c-0.9-0.3-1.7-0.5-2.5-0.7-2.8-0.6 16.3 0.6 14.8-2l7.1 10.5-3.8 9.6-10 8.9-11.2 4.9-7 0.5-6.4-2-4.5-3.2z"/>
					</g>
				</g>
				<path id="Layer" class="s7" d="m150.2 164.8c0.7 1.2 0.3 2.7-0.9 3.4l-18.7 10.8c-1.2 0.7-2.7 0.3-3.4-0.9-0.7-1.2-0.3-2.7 0.9-3.4l18.8-10.8c1.1-0.7 2.7-0.3 3.3 0.9z"/>
				<path id="Layer" class="s11" d="m136.7 180.1l1-0.5 5 8.6-1 0.5z"/>
				<path id="Layer" class="s11" d="m141.7 177.2l1-0.5 5 8.6-1 0.5z"/>
				<path id="Layer" class="s11" d="m139.2 178.7l1-0.6 5 8.6-1 0.6z"/>
				<path id="Layer" class="s6" d="m122.2 182.7l9 17.3q0.5 1.1 0.7 2.3 0.2 1.2 0.2 2.4 0 1.1-0.3 2.3-0.3 1.2-0.8 2.2-0.2 0.5-0.5 1-0.2 0.5-0.5 1-0.3 0.4-0.6 0.8-0.4 0.5-0.7 0.9-0.5 0.6-1.1 1.1-0.5 0.5-1.1 1-0.6 0.5-1.2 0.9-0.6 0.4-1.3 0.8c-9.1 5.3-17.5 10.3-19.4-1.3q-0.1-0.8-0.2-1.6 0-0.8 0-1.6 0.1-0.8 0.2-1.5 0.1-0.8 0.3-1.6 0.4-1.3 0.7-2.5 0.4-1 0.5-2.1 0.1-1-0.1-2.1-0.1-1-0.4-2-0.4-1-1-2l-2.2-3.6z"/>
				<g id="Clip-Path" clip-path="url(#cp3)">
					<g id="Layer">
						<path id="Layer" class="s10" d="m107.6 211.1c-2.7 1.5-6.1 0.6-7.7-2.1-1.6-2.7-0.6-6.1 2.1-7.7 2.7-1.6 6.1-0.6 7.7 2.1 1.5 2.7 0.6 6.1-2.1 7.7z"/>
						<path id="Layer" class="s10" d="m137.9 198.2l0.6 5.4-1.4 6.6-3.9 5.9-9.9 7.3-12.7 4.2-10.2-1.4-5.5-11.4c1.4 2.4 10-14.7 9.1-11.9q-0.4 1.1-0.8 2.5-0.2 0.7-0.3 1.5-0.1 0.8-0.2 1.6 0 0.8 0 1.6 0.1 0.8 0.2 1.6c1.9 11.5 10.4 6.6 19.5 1.3q0.6-0.4 1.2-0.9 0.7-0.4 1.2-0.9 0.6-0.4 1.2-1 0.5-0.5 1-1.1 0.4-0.4 0.7-0.8 0.3-0.4 0.6-0.9 0.3-0.5 0.6-0.9 0.2-0.5 0.5-1 0.5-1.1 0.7-2.3 0.3-1.1 0.3-2.3 0.1-1.2-0.2-2.4-0.2-1.1-0.6-2.2l8.3-2.7z"/>
					</g>
				</g>
				<path id="Layer" class="s7" d="m99.6 194.1c-0.7-1.2-0.3-2.7 0.9-3.4l18.7-10.9c1.2-0.7 2.7-0.3 3.4 0.9 0.7 1.2 0.3 2.7-0.9 3.4l-18.7 10.9c-1.2 0.7-2.7 0.2-3.4-0.9z"/>
				<path id="Layer" class="s11" d="m124.6 198.6l-0.9 0.6-5-8.6 0.9-0.6z"/>
				<path id="Layer" class="s11" d="m119.6 201.5l-0.9 0.6-5-8.6 1-0.6z"/>
				<path id="Layer" class="s11" d="m121.7 199.1l-0.9 0.6-5-8.6 1-0.6z"/>
				<path id="Layer" class="s12" d="m5.4 61.6l-5.1 2.9-0.3-0.6 5.1-2.9z"/>
				<path id="ear-3" class="s12" d="m6.6 50.2l9.2 15.9q-1.3 0.7-2.8 0.9-1.4 0.2-2.8-0.2-1.4-0.4-2.6-1.3-1.1-0.9-1.8-2.1l-1.9-3.2q-0.7-1.3-0.9-2.7-0.2-1.5 0.2-2.9 0.4-1.4 1.3-2.5 0.9-1.2 2.1-1.9z"/>
				<g id="Clip-Path" clip-path="url(#cp4)">
					<g id="Layer">
						<path id="circle" class="s13" d="m44.4 73.8c-15.5 5.1-32.4-4.1-37.8-20.6-5.4-16.5 2.8-33.9 18.2-39 15.5-5.1 32.4 4.1 37.9 20.6 5.4 16.5-2.8 33.9-18.3 39z"/>
						<path id="Layer" class="s13" d="m5.8 63.1c-0.4 0.3-1.2-0.2-1.7-1.1-0.5-0.9-0.5-1.8-0.1-2 0.4-0.3 1.2 0.2 1.7 1.1 0.5 0.9 0.5 1.8 0.1 2z"/>
					</g>
				</g>
				<path id="Layer" class="s12" d="m81.7 16.6l5.1-2.9 0.3 0.6-5 3z"/>
				<path id="ear-4" class="s12" d="m80.5 28.3l-9.1-15.8q1.2-0.7 2.7-0.9 1.4-0.2 2.8 0.2 1.4 0.3 2.6 1.2 1.1 0.9 1.9 2.2l1.8 3.1q0.7 1.3 0.9 2.7 0.2 1.5-0.2 2.9-0.4 1.4-1.2 2.5-0.9 1.2-2.2 1.9z"/>
				<g id="Clip-Path" clip-path="url(#cp5)">
					<g id="Layer">
						<path id="circle-2" class="s13" d="m68.4 61.3c-14 8.1-32.2 2.6-40.8-12.2-8.6-14.9-4.3-33.4 9.7-41.5 14-8.1 32.3-2.7 40.9 12.2 8.6 14.8 4.2 33.4-9.8 41.5z"/>
						<path id="Layer" class="s13" d="m83.2 18.2c-0.5 0.3-1.2-0.2-1.7-1.1-0.5-0.8-0.6-1.7-0.1-2 0.4-0.2 1.1 0.3 1.6 1.1 0.5 0.9 0.6 1.8 0.2 2z"/>
					</g>
				</g>
				<path id="_Ellipse_2" class="s14" d="m63.2 73.5c-18.6 10.7-42.4 4.3-53.1-14.3-10.7-18.7-4.3-42.4 14.4-53.2 18.6-10.7 42.4-4.3 53.1 14.4 10.7 18.7 4.3 42.4-14.4 53.1z"/>
				<g id="Clip-Path" clip-path="url(#cp6)">
					<g id="Layer">
						<path id="_Ellipse_3" class="s2" d="m65.3 72.3c-17.6 10.2-40.5 3.3-51.3-15.4-10.7-18.6-5.1-41.9 12.5-52 17.6-10.2 40.5-3.3 51.3 15.4 10.7 18.6 5.1 41.9-12.5 52z"/>
						<path id="_Ellipse_4" class="s15" d="m65.1 71.8c-17.5 10.1-40.3 3.3-51-15.3-10.8-18.5-5.3-41.7 12.2-51.8 17.5-10.1 40.3-3.3 51.1 15.2 10.7 18.6 5.2 41.8-12.3 51.9z"/>
						<path id="_Ellipse_5" class="s2" d="m63.8 72.6c-16.8 9.7-39 2.5-49.7-16.1-10.8-18.5-5.9-41.4 10.8-51 16.8-9.7 39-2.5 49.7 16 10.8 18.6 5.9 41.4-10.8 51.1z"/>
					</g>
				</g>
				<path id="purple" class="s16" d="m68 25.5c7.8 13.4 3.6 29.1-9.9 36.9-13.4 7.8-31 4.7-38.8-8.7-7.8-13.5-1.6-30.3 11.8-38 13.5-7.8 29.1-3.7 36.9 9.8z"/>
				<path id="purple-2" class="s17" d="m67.6 24.7c7.5 13 4.3 27.7-7.7 34.6-6 3.5-13.1 4.4-19.8 2.6-6.6-1.8-12.3-6.2-15.8-12.1-3.4-6-4.4-13.1-2.6-19.8 1.8-6.7 6.1-12.4 12.1-15.9 11.9-6.9 26.3-2.4 33.8 10.6z"/>
				<g id="outline">
					<path id="Layer" fill-rule="evenodd" class="s18" d="m45.2 6.8c11.2 0 21.3 6 27.2 16.2q1.6 2.7 2.6 5.7 1.1 3 1.6 6.1 0.4 3.2 0.3 6.3-0.2 3.2-1 6.2-0.9 3.1-2.3 5.9-1.4 2.9-3.4 5.3-1.9 2.5-4.3 4.6-2.5 2.1-5.2 3.6-2.1 1.2-4.3 2.1-2.1 0.9-4.4 1.5-2.3 0.7-4.7 1-2.3 0.3-4.7 0.3c-11.7 0-22-5.8-27.6-15.4-8.8-15.3-2.7-35.4 13.6-44.8q1.9-1.1 3.9-2 2-0.8 4.1-1.4 2.1-0.6 4.2-0.9 2.2-0.3 4.3-0.3zm0 5q-1.8 0-3.6 0.3-1.9 0.2-3.6 0.7-1.8 0.5-3.5 1.2-1.7 0.8-3.3 1.7c-13.4 7.8-19.6 24.5-11.8 38 5 8.6 13.9 12.9 23.3 12.9q2 0 4-0.3 2.1-0.2 4-0.8 2-0.5 3.9-1.3 1.9-0.8 3.7-1.8c13.4-7.8 17.6-23.4 9.8-36.9-5.1-8.9-13.7-13.7-22.9-13.7z"/>
				</g>
				<path id="Layer" class="s12" d="m40.7 78.3l38.2-22.2q1.4-0.7 2.9-0.9 1.5-0.2 3 0.1 1.5 0.4 2.7 1.4 1.2 0.9 2 2.2l0.8 1.5-51.5 29.9-0.9-1.5q-0.8-1.4-1-2.9-0.2-1.5 0.2-3 0.4-1.4 1.3-2.7 1-1.2 2.3-1.9z"/>
				<path id="Layer" class="s18" d="m36.5 79.1l45.3-26.2q0.6-0.3 1.3-0.4 0.7-0.1 1.4 0.1 0.7 0.2 1.3 0.6 0.6 0.4 0.9 1l2.9 5.1-51.5 29.8-2.9-5q-0.4-0.7-0.5-1.4-0.1-0.7 0.1-1.4 0.2-0.7 0.7-1.2 0.4-0.6 1-1z"/>
				<path id="Layer" class="s0" d="m41.8 84.4c-1.1 0.6-2.4 0.2-3.1-0.8-0.6-1.1-0.2-2.5 0.9-3.1 1-0.6 2.4-0.3 3 0.8 0.7 1.1 0.3 2.5-0.8 3.1z"/>
				<path id="Layer" class="s0" d="m48.8 80.4c-1.1 0.6-2.5 0.2-3.1-0.9-0.6-1-0.3-2.4 0.8-3.1 1.1-0.6 2.5-0.2 3.1 0.9 0.6 1.1 0.3 2.4-0.8 3.1z"/>
				<path id="Layer" class="s0" d="m55.8 76.3c-1.1 0.7-2.5 0.3-3.1-0.8-0.7-1.1-0.3-2.4 0.8-3.1 1.1-0.6 2.5-0.2 3.1 0.8 0.6 1.1 0.2 2.5-0.8 3.1z"/>
				<path id="Layer" class="s0" d="m62.7 72.3c-1.1 0.6-2.4 0.3-3.1-0.8-0.6-1.1-0.2-2.5 0.9-3.1 1-0.6 2.4-0.3 3 0.8 0.7 1.1 0.3 2.5-0.8 3.1z"/>
				<path id="Layer" class="s0" d="m69.7 68.3c-1.1 0.6-2.5 0.2-3.1-0.8-0.6-1.1-0.3-2.5 0.8-3.1 1.1-0.7 2.5-0.3 3.1 0.8 0.6 1.1 0.3 2.4-0.8 3.1z"/>
				<path id="Layer" class="s0" d="m76.7 64.2c-1.1 0.7-2.5 0.3-3.1-0.8-0.7-1.1-0.3-2.4 0.8-3.1 1.1-0.6 2.5-0.2 3.1 0.9 0.6 1 0.2 2.4-0.8 3z"/>
				<path id="Layer" class="s0" d="m83.6 60.2c-1.1 0.6-2.5 0.3-3.1-0.8-0.6-1.1-0.2-2.5 0.8-3.1 1.1-0.6 2.5-0.3 3.1 0.8 0.7 1.1 0.3 2.5-0.8 3.1z"/>
			</g>
		</g>
	</g>
</svg>